<?xml version="1.0" encoding="UTF-8"?>
<svg xmlns="http://www.w3.org/2000/svg" xmlns:l="http://www.w3.org/1999/xlink" version="1.1" width="30mm" height="30mm" viewBox="0 0 30 30" color-profile="auto" color-interpolation="linearRGB" color-interpolation-filters="linearRGB"><g fill="none" stroke-miterlimit="9.98123" transform="matrix(2.81404 0 0 -6.76279 -0 26.0831)"><defs><path id="i1" d="M0 -0.579185L10.6608 -0.579185L10.6608 3.85685L0 3.85685Z"/></defs><use l:href="#i1" fill="#000000" fill-opacity="0"/><g transform="translate(0 1)"><defs><path id="i2" d="M0.05 0A 0.05 0.05 0 0 1 -0.05 0A 0.05 0.05 0 0 1 0.05 0Z"/></defs><use l:href="#i2" fill="#000000"/></g><g transform="translate(0.707107 1.70711)"><use l:href="#i2" fill="#000000"/></g><g transform="translate(1.40421 2.31421)"><use l:href="#i2" fill="#000000"/></g><g transform="translate(2.09132 2.82132)"><use l:href="#i2" fill="#000000"/></g><g transform="translate(2.76843 3.22843)"><use l:href="#i2" fill="#000000"/></g><g transform="translate(3.43553 3.53553)"><use l:href="#i2" fill="#000000"/></g><g transform="translate(4.09264 3.74264)"><use l:href="#i2" fill="#000000"/></g><g transform="translate(4.73975 3.84975)"><use l:href="#i2" fill="#000000"/></g><g transform="translate(5.37685 3.85685)"><use l:href="#i2" fill="#000000"/></g><g transform="translate(6.00396 3.76396)"><use l:href="#i2" fill="#000000"/></g><g transform="translate(6.62107 3.57107)"><use l:href="#i2" fill="#000000"/></g><g transform="translate(7.22817 3.27817)"><use l:href="#i2" fill="#000000"/></g><g transform="translate(7.82528 2.88528)"><use l:href="#i2" fill="#000000"/></g><g transform="translate(8.41239 2.39239)"><use l:href="#i2" fill="#000000"/></g><g transform="translate(8.98949 1.79949)"><use l:href="#i2" fill="#000000"/></g><g transform="translate(9.5566 1.1066)"><use l:href="#i2" fill="#000000"/></g><g transform="translate(10.1137 0.313708)"><use l:href="#i2" fill="#000000"/></g><g transform="translate(10.6608 -0.579185)"><use l:href="#i2" fill="#000000"/></g></g></svg>